<svg viewBox="0 0 330 200" xmlns="http://www.w3.org/2000/svg"><g><g><g><g><g><line x1="50" y1="177" x2="45" y2="177" style="visibility: inherit;" fill="rgb(0, 0, 0)" stroke="rgb(204, 204, 204)" stroke-width="1px"></line><line x1="50" y1="154.875" x2="45" y2="154.875" style="visibility: inherit;" fill="rgb(0, 0, 0)" stroke="rgb(204, 204, 204)" stroke-width="1px"></line><line x1="50" y1="132.75" x2="45" y2="132.75" style="visibility: inherit;" fill="rgb(0, 0, 0)" stroke="rgb(204, 204, 204)" stroke-width="1px"></line><line x1="50" y1="110.62499999999999" x2="45" y2="110.62499999999999" style="visibility: inherit;" fill="rgb(0, 0, 0)" stroke="rgb(204, 204, 204)" stroke-width="1px"></line><line x1="50" y1="88.49999999999999" x2="45" y2="88.49999999999999" style="visibility: inherit;" fill="rgb(0, 0, 0)" stroke="rgb(204, 204, 204)" stroke-width="1px"></line><line x1="50" y1="66.375" x2="45" y2="66.375" style="visibility: inherit;" fill="rgb(0, 0, 0)" stroke="rgb(204, 204, 204)" stroke-width="1px"></line><line x1="50" y1="44.25" x2="45" y2="44.25" style="visibility: inherit;" fill="rgb(0, 0, 0)" stroke="rgb(204, 204, 204)" stroke-width="1px"></line><line x1="50" y1="22.125" x2="45" y2="22.125" style="visibility: inherit;" fill="rgb(0, 0, 0)" stroke="rgb(204, 204, 204)" stroke-width="1px"></line><line x1="50" y1="0" x2="45" y2="0" style="visibility: inherit;" fill="rgb(0, 0, 0)" stroke="rgb(204, 204, 204)" stroke-width="1px"></line></g><g transform="translate(40, 0)"><text x="0" y="177" dx="0em" dy="0.3em" style="text-anchor: end; visibility: hidden; font-family: Roboto, sans-serif; font-size: 12px; font-weight: 200;" fill="rgb(50, 49, 63)" stroke="none" stroke-width="1px">-0.2</text><text x="0" y="154.875" dx="0em" dy="0.3em" style="text-anchor: end; visibility: inherit; font-family: Roboto, sans-serif; font-size: 12px; font-weight: 200;" fill="rgb(50, 49, 63)" stroke="none" stroke-width="1px">0</text><text x="0" y="132.75" dx="0em" dy="0.3em" style="text-anchor: end; visibility: hidden; font-family: Roboto, sans-serif; font-size: 12px; font-weight: 200;" fill="rgb(50, 49, 63)" stroke="none" stroke-width="1px">0.2</text><text x="0" y="110.62499999999999" dx="0em" dy="0.3em" style="text-anchor: end; visibility: inherit; font-family: Roboto, sans-serif; font-size: 12px; font-weight: 200;" fill="rgb(50, 49, 63)" stroke="none" stroke-width="1px">0.4</text><text x="0" y="88.49999999999999" dx="0em" dy="0.3em" style="text-anchor: end; visibility: hidden; font-family: Roboto, sans-serif; font-size: 12px; font-weight: 200;" fill="rgb(50, 49, 63)" stroke="none" stroke-width="1px">0.6</text><text x="0" y="66.375" dx="0em" dy="0.3em" style="text-anchor: end; visibility: inherit; font-family: Roboto, sans-serif; font-size: 12px; font-weight: 200;" fill="rgb(50, 49, 63)" stroke="none" stroke-width="1px">0.8</text><text x="0" y="44.25" dx="0em" dy="0.3em" style="text-anchor: end; visibility: hidden; font-family: Roboto, sans-serif; font-size: 12px; font-weight: 200;" fill="rgb(50, 49, 63)" stroke="none" stroke-width="1px">1</text><text x="0" y="22.125" dx="0em" dy="0.3em" style="text-anchor: end; visibility: inherit; font-family: Roboto, sans-serif; font-size: 12px; font-weight: 200;" fill="rgb(50, 49, 63)" stroke="none" stroke-width="1px">1.2</text><text x="0" y="0" dx="0em" dy="0.3em" style="text-anchor: end; visibility: hidden; font-family: Roboto, sans-serif; font-size: 12px; font-weight: 200;" fill="rgb(50, 49, 63)" stroke="none" stroke-width="1px">1.4</text></g><line x1="50" y1="0" x2="50" y2="177" fill="rgb(0, 0, 0)" stroke="rgb(204, 204, 204)" stroke-width="1px"></line></g></g><g transform="translate(50, 0)" clip-path="url(#clip_0)"><clipPath id="clip_0"><rect width="280" height="177"></rect></clipPath><g><g><g><line x1="0" y1="0" x2="0" y2="177" fill="rgb(0, 0, 0)" stroke="rgb(60, 60, 60)" stroke-width="1px" opacity="0.25"></line><line x1="28" y1="0" x2="28" y2="177" fill="rgb(0, 0, 0)" stroke="rgb(60, 60, 60)" stroke-width="1px" opacity="0.25"></line><line x1="56" y1="0" x2="56" y2="177" fill="rgb(0, 0, 0)" stroke="rgb(60, 60, 60)" stroke-width="1px" opacity="0.25"></line><line x1="84" y1="0" x2="84" y2="177" fill="rgb(0, 0, 0)" stroke="rgb(60, 60, 60)" stroke-width="1px" opacity="0.25"></line><line x1="112" y1="0" x2="112" y2="177" fill="rgb(0, 0, 0)" stroke="rgb(60, 60, 60)" stroke-width="1px" opacity="0.25"></line><line x1="140" y1="0" x2="140" y2="177" fill="rgb(0, 0, 0)" stroke="rgb(60, 60, 60)" stroke-width="1px" opacity="0.25"></line><line x1="168" y1="0" x2="168" y2="177" fill="rgb(0, 0, 0)" stroke="rgb(60, 60, 60)" stroke-width="1px" opacity="0.25"></line><line x1="196" y1="0" x2="196" y2="177" fill="rgb(0, 0, 0)" stroke="rgb(60, 60, 60)" stroke-width="1px" opacity="0.25"></line><line x1="224" y1="0" x2="224" y2="177" fill="rgb(0, 0, 0)" stroke="rgb(60, 60, 60)" stroke-width="1px" opacity="0.25"></line><line x1="252" y1="0" x2="252" y2="177" fill="rgb(0, 0, 0)" stroke="rgb(60, 60, 60)" stroke-width="1px" opacity="0.25"></line><line x1="280" y1="0" x2="280" y2="177" fill="rgb(0, 0, 0)" stroke="rgb(60, 60, 60)" stroke-width="1px" opacity="0.25"></line></g><g><line x1="0" y1="177" x2="280" y2="177" fill="rgb(0, 0, 0)" stroke="rgb(60, 60, 60)" stroke-width="1px" opacity="0.25"></line><line x1="0" y1="154.875" x2="280" y2="154.875" fill="rgb(0, 0, 0)" stroke="rgb(60, 60, 60)" stroke-width="1px" opacity="0.25"></line><line x1="0" y1="132.75" x2="280" y2="132.75" fill="rgb(0, 0, 0)" stroke="rgb(60, 60, 60)" stroke-width="1px" opacity="0.25"></line><line x1="0" y1="110.62499999999999" x2="280" y2="110.62499999999999" fill="rgb(0, 0, 0)" stroke="rgb(60, 60, 60)" stroke-width="1px" opacity="0.25"></line><line x1="0" y1="88.49999999999999" x2="280" y2="88.49999999999999" fill="rgb(0, 0, 0)" stroke="rgb(60, 60, 60)" stroke-width="1px" opacity="0.25"></line><line x1="0" y1="66.375" x2="280" y2="66.375" fill="rgb(0, 0, 0)" stroke="rgb(60, 60, 60)" stroke-width="1px" opacity="0.25"></line><line x1="0" y1="44.25" x2="280" y2="44.25" fill="rgb(0, 0, 0)" stroke="rgb(60, 60, 60)" stroke-width="1px" opacity="0.25"></line><line x1="0" y1="22.125" x2="280" y2="22.125" fill="rgb(0, 0, 0)" stroke="rgb(60, 60, 60)" stroke-width="1px" opacity="0.25"></line><line x1="0" y1="0" x2="280" y2="0" fill="rgb(0, 0, 0)" stroke="rgb(60, 60, 60)" stroke-width="1px" opacity="0.25"></line></g></g></g><g><g><line x1="0" y1="154.875" x2="280" y2="154.875" fill="rgb(0, 0, 0)" stroke="rgb(153, 153, 153)" stroke-width="1.5px"></line></g></g><g><g><line x1="28" y1="0" x2="28" y2="177" fill="rgb(0, 0, 0)" stroke="rgb(153, 153, 153)" stroke-width="1.5px"></line></g></g><g><g><g><g><g><path stroke="rgb(204, 51, 17)" stroke-width="2px" d="M29.4,-12.293132057413459L30.8,4.712318581281878L32.2,35.34939516946562L33.6,55.37807271349333L35,66.89850640033744L36.4,81.92754113094222L37.800000000000004,97.08073996363024L39.2,107.41714111361442L40.599999999999994,111.43799142665134L42,111.43801625812472L43.4,108.32024460108879L44.800000000000004,100.1133138972979L46.2,105.69565505339688L47.6,113.01806293734766L49,115.24432942167459L50.4,116.39709220563878L51.8,118.84220356687847L53.2,125.01332657594648L54.6,122.71633819070867L56,118.17499287168107L57.4,121.60688160475283L58.8,124.56747991668215L60.199999999999996,131.30991762043493L61.6,128.481895339479L63,116.96397696078708L64.4,119.23948318138909L65.8,121.72418565820996L67.2,113.09279162261862L68.6,120.84560224042L70,125.50338872465599L71.4,131.14315085037092L72.8,126.03670634933418L74.2,129.71223765031047L75.60000000000001,126.57671570850799L77,127.89662351821335L78.4,130.78325268245703L79.8,129.76678389226637L81.19999999999999,130.74947725777363L82.6,131.19717239972914L84,131.21447608851963L85.39999999999999,135.3895672347883L86.8,138.1828092929137L88.2,142.13925555246541L89.60000000000001,146.16570415961854L91,146.64611242077135L92.4,148.39554335436145L93.80000000000001,149.30304794916117L95.2,148.28163432981844L96.6,139.5532874682214L98,143.67659773548704L99.39999999999999,138.6940407417287L100.8,139.59386385527824L102.2,140.36557105174785L103.6,143.5994025734676L105,141.8188440199257L106.4,123.88254403147059L107.8,115.68062536312799L109.2,123.7460700535403L110.60000000000001,134.2610712340778L112,139.6368893517589L113.4,142.3664184072486L114.8,144.8780015911607L116.19999999999999,143.92627098819304L117.6,145.86073792933337L119,146.57899137710876L120.39999999999999,147.10750147849527L121.8,149.5421564665263L123.2,140.67481943811924L124.60000000000001,135.77511320022313L126,139.73505799625855L127.4,143.56282001229846L128.8,146.84260163917526L130.20000000000002,121.9633867067956L131.6,131.81138266535777L133,129.67332955546485L134.4,133.85409171639267L135.79999999999998,130.58769240831367L137.2,137.36071177373844L138.6,141.222969506237L140,144.27820703461205L141.4,144.58290207355878L142.8,143.96569509413635L144.20000000000002,138.26242571611283L145.6,136.08379474678085L147,140.96289132325916L148.4,144.91811445658098L149.8,142.0173972818535L151.20000000000002,143.8009981206525L152.60000000000002,143.5057180541139L154,140.88774964540488L155.4,141.5409838174539L156.8,142.5222089940165L158.2,132.7256671639594L159.6,124.01127762361243L161,97.04370481529162L162.39999999999998,101.92142729317143L163.79999999999998,65.2265954992473L165.2,91.73086364902854L166.6,112.4082438869047L168,123.89232447655606L169.4,119.42975621170764L170.79999999999998,120.16623933760503L172.2,121.32356841354476L173.6,125.00291724719945L175,106.9582167966267L176.4,122.53796574454609L177.8,126.11334446210327L179.20000000000002,132.19266933844185L180.6,136.4115931296092L182,136.76113689117085L183.4,136.41497127293022L184.8,137.43924875753206L186.20000000000002,141.06727147741367L187.60000000000002,133.2377141961053L189,128.75728127053947L190.4,128.58689704875093L191.8,134.8864726913866L193.2,142.34955562618129L194.6,146.46866457768456L196,136.39907410209284L197.39999999999998,137.42576342800203L198.79999999999998,133.77185601877537L200.2,140.7226336846865L201.6,137.20164671093923L203,140.44789540574374L204.4,146.0379020135195L205.79999999999998,149.01536651908216L207.2,146.8426014752469L208.6,149.03781170739046L210,145.63960389177987L211.4,148.75289447762847L212.8,148.45603688695746L214.20000000000002,142.4460736841781L215.6,137.28062446077604L217,136.84518144449555L218.4,134.7419285873828L219.8,136.9232759505664L221.20000000000002,140.67788281024423L222.60000000000002,138.6803647874649L224,139.91493766077494L225.4,130.88485685925562L226.8,132.42050269583393L228.2,124.99062126183229L229.6,131.43240621941518L231,131.81490499977608L232.39999999999998,110.16330891075334L233.79999999999998,99.71956442429186L235.2,120.551258748262L236.6,117.59314565836719L238,119.79963328528005L239.4,128.0102532541013L240.79999999999998,136.4517716119591L242.2,141.56061786412616L243.6,145.09916960633947L245,147.7921370185891L246.4,149.1796186137187L247.8,150.03292259960546L249.20000000000002,150.7589209266852L250.6,150.57956473795178" style="fill: none;" fill="none"></path></g><g><path stroke="rgb(0, 119, 187)" stroke-width="2px" d="M30.8,-16.223669595560235L32.2,17.43955523715191L33.6,44.109043408435994L35,62.642966222548175L36.4,77.44846060592963L37.800000000000004,84.97547264409464L39.2,95.04771640841649L40.599999999999994,104.81088663467796L42,108.30122003487594L43.4,108.51444718437L44.800000000000004,107.54003803958611L46.2,110.16821423410178L47.6,113.89073396951677L49,117.48031621269841L50.4,121.7957308125198L51.8,125.83167300726092L53.2,131.86211846110123L54.6,132.33429850382703L56,130.9552269738615L57.4,133.85896741845917L58.8,138.00450322250018L60.199999999999996,140.58358476390245L61.6,134.63220245619428L63,131.30937446221205L64.4,125.17518635984352L65.8,127.85556340321747L67.2,129.1432761480335L68.6,128.01818685126077L70,131.78334359262396L71.4,133.8450951819919L72.8,133.1209067145063L74.2,131.37405592572006L75.60000000000001,131.6556762303921L77,132.87326325441674L78.4,136.62969238156387L79.8,139.89574072884895L81.19999999999999,142.37507667834524L82.6,144.17211336104862L84,144.96798941271535L85.39999999999999,146.207393463341L86.8,147.7349025374666L88.2,147.9288666381138L89.60000000000001,148.8792838562864L91,145.60715299358452L92.4,143.62782129867708L93.80000000000001,145.16427491965666L95.2,145.22501637220626L96.6,141.20238671705002L98,142.81197051595856L99.39999999999999,145.63157546363075L100.8,145.677857250895L102.2,145.5736165339057L103.6,148.18168558258307L105,147.86216810839457L106.4,143.93586254490575L107.8,144.68422210736978L109.2,143.84170644409295L110.60000000000001,147.27649365415044L112,148.57651668220683L113.4,150.48006029785756L114.8,151.94180979331577L116.19999999999999,152.6293415924549L117.6,151.46079710148362L119,152.1009385682126L120.39999999999999,152.5453188028249L121.8,151.58585634101559L123.2,151.26525152933078L124.60000000000001,149.58365510194884L126,145.73858985551826L127.4,146.3615651633509L128.8,148.05194612871367L130.20000000000002,148.17998686115894L131.6,139.8819779011962L133,140.08891193812235L134.4,142.43197246526267L135.79999999999998,146.08191255970053L137.2,147.5047465934947L138.6,147.52995938097507L140,149.36310222514388L141.4,150.1681158847312L142.8,144.69625986630916L144.20000000000002,145.40300406487404L145.6,147.36363311821444L147,144.70093019508852L148.4,145.8655030355813L149.8,148.18220835333835L151.20000000000002,149.80482532670436L152.60000000000002,150.1696133250167L154,150.22240437882664L155.4,148.77826509888482L156.8,148.91957684522427L158.2,145.84798338213895L159.6,143.46988468512495L161,142.22068124574184L162.39999999999998,143.0090319510505L163.79999999999998,140.00730489022763L165.2,134.9763193768396L166.6,140.32793825072847L168,141.94280595900298L169.4,139.28082701308537L170.79999999999998,144.50458649634874L172.2,147.5115121559921L173.6,148.45623241814215L175,148.03564679370666L176.4,146.47927971554603L177.8,147.88971477168235L179.20000000000002,149.66804264874344L180.6,151.32182249794988L182,152.33693338955916L183.4,152.80615014998526L184.8,153.55287568933244L186.20000000000002,153.5552938158302L187.60000000000002,151.11667721979254L189,152.32701352825814L190.4,152.26391884915785L191.8,152.04499143500777L193.2,153.0291175189952L194.6,151.65896056292L196,151.58329504333832L197.39999999999998,151.07467005817085L198.79999999999998,149.09906506154232L200.2,148.17876510538633L201.6,150.03400176874834L203,151.01889942867405L204.4,150.94259536397664L205.79999999999998,152.05058522782858L207.2,152.48188205899453L208.6,152.35416380612796L210,153.27457391505547L211.4,153.52156051977042L212.8,153.43688452294543L214.20000000000002,153.9215641930717L215.6,154.19029984465905L217,154.34799682998488L218.4,153.88900900816964L219.8,153.76218419930962L221.20000000000002,153.7490005383123L222.60000000000002,152.60014867923283L224,152.78384530088528L225.4,150.99401385007783L226.8,150.41623916614643L228.2,147.96788038097972L229.6,143.2965760128686L231,140.47754833605822L232.39999999999998,141.35184699822625L233.79999999999998,136.16146140712L235.2,139.33172163057324L236.6,142.13383948952256L238,143.47866538368342L239.4,139.57968036206174L240.79999999999998,144.79457631518903L242.2,148.16788932456353L243.6,150.133973663442L245,151.6267290185218L246.4,152.75886097750697L247.8,153.50387927767864L249.20000000000002,153.91915266949383L250.6,154.21706794986486" style="fill: none;" fill="none"></path></g></g></g></g><g opacity="0.2"><g><g><g><path stroke="rgb(204, 51, 17)" stroke-width="2px" d="M28,-33.89777232706547L29.4,0.6696521043777466L30.8,21.037551194429398L32.2,71.37859723716974L33.6,81.52751411497593L35,82.8354135453701L36.4,103.41930126026273L37.800000000000004,119.17424933239818L39.2,122.66132506728172L40.599999999999994,117.40848553553224L42,111.43805328011513L43.4,103.66055389121175L44.800000000000004,87.82971489429474L46.2,114.05823040008545L47.6,123.99306754767895L49,118.58215901255608L50.4,118.12574857100844L51.8,122.50924979522824L53.2,134.2690709810704L54.6,119.27106556668878L56,111.36322395130992L57.4,126.75460177659988L58.8,129.00831893272698L60.199999999999996,141.42349430546165L61.6,124.23988201841712L63,99.68714851140976L64.4,122.65273668989539L65.8,125.45123555883765L67.2,100.14570851996541L68.6,132.47481388226151L70,132.49006690643728L71.4,139.60279291681945L72.8,118.37704020738602L74.2,135.22553433850408L75.60000000000001,121.87343293055892L77,129.8764851987362L78.4,135.1131963841617L79.8,128.24208071641624L81.19999999999999,132.22351730056107L82.6,131.86871511116624L84,131.24043162167072L85.39999999999999,141.65220394916832L86.8,142.37267237808555L88.2,148.07392494007945L89.60000000000001,152.2053770693019L91,147.36672481242567L92.4,151.01968975458294L93.80000000000001,150.6643048413098L95.2,146.7495139008388L96.6,126.46076717600226L98,149.86156313633546L99.39999999999999,131.22020525112748L100.8,140.94359852559865L102.2,141.52313184645027L103.6,148.45014985604212L105,139.14800618961453L106.4,96.97809404879808L107.8,103.37774736061692L109.2,135.8442370891571L110.60000000000001,150.03357300488278L112,147.70061652828008L113.4,146.4607119904831L114.8,148.6453763670288L116.19999999999999,142.49867508374155L117.6,148.7624383410439L119,147.65637154877186L120.39999999999999,147.90026663057506L121.8,153.1941389485728L123.2,127.37381389550865L124.60000000000001,128.42555384337902L126,145.67497519031167L127.4,149.30446303635836L128.8,151.76227407949045L130.20000000000002,84.64456430822611L131.6,146.58337660320103L133,126.46624989062548L134.4,140.12523495778441L135.79999999999998,125.68809344619513L137.2,147.52024082187563L138.6,147.01635610498488L140,148.86106332717463L141.4,145.03994463197887L142.8,143.03988462500274L144.20000000000002,129.70752164907753L145.6,132.8158482927829L147,148.2815361879766L148.4,150.85094915656373L149.8,137.66632151976228L151.20000000000002,146.47639937885106L152.60000000000002,143.062797954306L154,136.96079703234136L155.4,142.52083507552743L156.8,143.99404675886035L158.2,118.03085441887379L159.6,110.939693313092L161,56.59234560281038L162.39999999999998,109.23801100999117L163.79999999999998,10.184347808361053L165.2,131.48726587370038L166.6,143.42431424371898L168,141.11844536103308L169.4,112.735903814435L170.79999999999998,121.27096402645111L172.2,123.05956202745438L173.6,130.5219404976815L175,79.8911661207676L176.4,145.90758916642517L177.8,131.47641253843904L179.20000000000002,141.31165665294975L180.6,142.73997881636024L182,137.2854525335133L183.4,135.89572284556925L184.8,138.97566498443484L186.20000000000002,146.50930555723608L187.60000000000002,121.49337827414274L189,122.0366318821907L190.4,128.33132071606815L191.8,144.33583615534008L193.2,153.54418002837338L194.6,152.64732800493948L196,121.29468838870525L197.39999999999998,138.96579741686583L198.79999999999998,128.29099490493536L200.2,151.14880018355325L201.6,131.9201662503183L203,145.31726844795048L204.4,154.42291192518314L205.79999999999998,153.48156327742618L207.2,143.58345390949398L208.6,152.33062705560587L210,140.54229216836393L211.4,153.4228303564014L212.8,148.01075050095096L214.20000000000002,133.43112888000906L215.6,129.53245062567294L217,136.19201692007482L218.4,131.5870493017137L219.8,140.19529699534178L221.20000000000002,146.309793099761L222.60000000000002,135.6840877532959L224,141.76679697073996L225.4,117.3397356569767L226.8,134.72397145070136L228.2,113.84579911082983L229.6,141.0950836557895L231,132.3886531703174L232.39999999999998,77.6859147772193L233.79999999999998,84.05394769459963L235.2,151.7988002342172L236.6,113.155976023525L238,123.10936472564936L239.4,140.3261832073331L240.79999999999998,149.11404914874583L242.2,149.2238872423768L243.6,150.4069972196594L245,151.83158813696355L246.4,151.2608410064131L247.8,151.31287857843563L249.20000000000002,151.84791841730475L250.6,150.3105304548517" style="fill: none;" fill="none"></path></g><g><path stroke="rgb(0, 119, 187)" stroke-width="2px" d="M29.4,-23.920721903443336L30.8,2.389226585626602L32.2,57.02750764042139L33.6,78.92872716486454L35,88.28205368667841L36.4,98.62055446207523L37.800000000000004,95.94992845505476L39.2,109.90231952816248L40.599999999999994,119.30805658176541L42,113.50506306812167L43.4,108.83312753587961L44.800000000000004,106.08160593733191L46.2,114.10532965511084L47.6,119.4701378904283L49,122.8621579259634L50.4,128.26702657341957L51.8,131.88456157408655L53.2,140.90686796419322L54.6,133.04252540878952L56,128.88669531047344L57.4,138.21448253653944L58.8,144.22272508218884L60.199999999999996,144.4521765243262L61.6,125.70517129451036L63,126.32514664158225L64.4,115.97391990199685L65.8,131.87612485326827L67.2,131.07484407909214L68.6,126.33055352792144L70,137.43107745610178L71.4,136.9377221558243L72.8,132.03462409973145L74.2,128.75377986766398L75.60000000000001,132.07810667529702L77,134.69964375905693L78.4,142.26433601416647L79.8,144.79481321945786L81.19999999999999,146.09408058878034L82.6,146.86766837909818L84,146.16180348861963L85.39999999999999,148.06649953778833L86.8,150.02616614755243L88.2,148.21981278900057L89.60000000000001,150.30490968329832L91,140.6989567000419L92.4,140.65882375650108L93.80000000000001,147.46895535103977L95.2,145.31612855102867L96.6,135.16844223439693L98,145.22634621430188L99.39999999999999,149.86098288511857L100.8,145.74727993179113L102.2,145.417255458422L103.6,152.093789155595L105,147.38289189711213L106.4,138.04640419967473L107.8,145.80676145106554L109.2,142.57793294917792L110.60000000000001,152.42867446923628L112,150.52655122429132L113.4,153.33537572133355L114.8,154.13443403650308L116.19999999999999,153.66063929116353L117.6,149.70798036502674L119,153.0611507683061L120.39999999999999,153.2118891547434L121.8,150.14666264830157L123.2,150.78434431180358L124.60000000000001,147.06126046087593L126,139.9709919858724L127.4,147.29602812509984L128.8,150.58751757675782L130.20000000000002,148.3720479598269L131.6,127.4349644612521L133,140.39931299351156L134.4,145.94656325597316L135.79999999999998,151.5568227013573L137.2,149.63899764418602L138.6,147.5677785621956L140,152.1128164913971L141.4,151.37563637411222L142.8,136.4884758386761L144.20000000000002,146.46312036272138L145.6,150.304576698225L147,140.70687581039965L148.4,147.6123622963205L149.8,151.65726632997394L151.20000000000002,152.23875078675337L152.60000000000002,150.71679532248527L154,150.3015909595415L155.4,146.61205617897213L156.8,149.13154446473345L158.2,141.24059318751097L159.6,139.90273663960397L161,140.34687608666718L162.39999999999998,144.19155800901353L163.79999999999998,135.50471429899335L165.2,127.42984110675752L166.6,148.35536656156182L168,144.36510752141476L169.4,135.28785859420896L170.79999999999998,152.34022572124377L172.2,152.0219006454572L173.6,149.8733128113672L175,147.4047683570534L176.4,144.1447290983051L177.8,150.00536735588685L179.20000000000002,152.33553446433507L180.6,153.80249227175955L182,153.8595997269731L183.4,153.50997529062442L184.8,154.67296399835323L186.20000000000002,153.55892100557685L187.60000000000002,147.458752325736L189,154.14251799095655L190.4,152.16927683050744L191.8,151.7166003137827L193.2,154.50530664497637L194.6,149.60372512880713L196,151.46979676396586L197.39999999999998,150.31173258041963L198.79999999999998,146.13565756659955L200.2,146.79831517115235L201.6,152.8168567637913L203,152.49624591856264L204.4,150.82813926693052L205.79999999999998,153.71257002360653L207.2,153.12882730574347L208.6,152.16258642682806L210,154.6551890784467L211.4,153.89204042684287L212.8,153.30987052770797L214.20000000000002,154.64858369826106L215.6,154.5934033220401L217,154.5845423079736L218.4,153.2005272754468L219.8,153.5719469860196L221.20000000000002,153.72922504681628L222.60000000000002,150.87687089061365L224,153.05939023336396L225.4,148.30926667386666L226.8,149.5495771402493L228.2,144.29534220322967L229.6,136.28961946070194L231,136.24900682084262L232.39999999999998,142.66329499147832L233.79999999999998,128.3758830204606L235.2,144.08711196575314L236.6,146.33701627794653L238,145.49590422492474L239.4,133.73120282962918L240.79999999999998,152.61692024488002L242.2,153.22785883862525L243.6,153.08310017175972L245,153.86586205114145L246.4,154.45705891598482L247.8,154.62140672793612L249.20000000000002,154.54206275721663L250.6,154.66394087042136" style="fill: none;" fill="none"></path></g></g></g></g></g></g><g transform="translate(50, 177)" clip-path="url(#clip_1)"><clipPath id="clip_1"><rect width="280" height="23"></rect></clipPath><g><g><line x1="0" y1="0" x2="0" y2="5" style="visibility: inherit;" fill="rgb(0, 0, 0)" stroke="rgb(204, 204, 204)" stroke-width="1px"></line><line x1="28" y1="0" x2="28" y2="5" style="visibility: inherit;" fill="rgb(0, 0, 0)" stroke="rgb(204, 204, 204)" stroke-width="1px"></line><line x1="56" y1="0" x2="56" y2="5" style="visibility: inherit;" fill="rgb(0, 0, 0)" stroke="rgb(204, 204, 204)" stroke-width="1px"></line><line x1="84" y1="0" x2="84" y2="5" style="visibility: inherit;" fill="rgb(0, 0, 0)" stroke="rgb(204, 204, 204)" stroke-width="1px"></line><line x1="112" y1="0" x2="112" y2="5" style="visibility: inherit;" fill="rgb(0, 0, 0)" stroke="rgb(204, 204, 204)" stroke-width="1px"></line><line x1="140" y1="0" x2="140" y2="5" style="visibility: inherit;" fill="rgb(0, 0, 0)" stroke="rgb(204, 204, 204)" stroke-width="1px"></line><line x1="168" y1="0" x2="168" y2="5" style="visibility: inherit;" fill="rgb(0, 0, 0)" stroke="rgb(204, 204, 204)" stroke-width="1px"></line><line x1="196" y1="0" x2="196" y2="5" style="visibility: inherit;" fill="rgb(0, 0, 0)" stroke="rgb(204, 204, 204)" stroke-width="1px"></line><line x1="224" y1="0" x2="224" y2="5" style="visibility: inherit;" fill="rgb(0, 0, 0)" stroke="rgb(204, 204, 204)" stroke-width="1px"></line><line x1="252" y1="0" x2="252" y2="5" style="visibility: inherit;" fill="rgb(0, 0, 0)" stroke="rgb(204, 204, 204)" stroke-width="1px"></line><line x1="280" y1="0" x2="280" y2="5" style="visibility: inherit;" fill="rgb(0, 0, 0)" stroke="rgb(204, 204, 204)" stroke-width="1px"></line></g><g transform="translate(0, 8)"><text x="0" y="0" dx="0em" dy="0.95em" style="text-anchor: middle; visibility: hidden; font-family: Roboto, sans-serif; font-size: 12px; font-weight: 200;" fill="rgb(50, 49, 63)" stroke="none" stroke-width="1px">-20</text><text x="28" y="0" dx="0em" dy="0.95em" style="text-anchor: middle; visibility: inherit; font-family: Roboto, sans-serif; font-size: 12px; font-weight: 200;" fill="rgb(50, 49, 63)" stroke="none" stroke-width="1px">0</text><text x="56" y="0" dx="0em" dy="0.95em" style="text-anchor: middle; visibility: inherit; font-family: Roboto, sans-serif; font-size: 12px; font-weight: 200;" fill="rgb(50, 49, 63)" stroke="none" stroke-width="1px">20</text><text x="84" y="0" dx="0em" dy="0.95em" style="text-anchor: middle; visibility: inherit; font-family: Roboto, sans-serif; font-size: 12px; font-weight: 200;" fill="rgb(50, 49, 63)" stroke="none" stroke-width="1px">40</text><text x="112" y="0" dx="0em" dy="0.95em" style="text-anchor: middle; visibility: inherit; font-family: Roboto, sans-serif; font-size: 12px; font-weight: 200;" fill="rgb(50, 49, 63)" stroke="none" stroke-width="1px">60</text><text x="140" y="0" dx="0em" dy="0.95em" style="text-anchor: middle; visibility: inherit; font-family: Roboto, sans-serif; font-size: 12px; font-weight: 200;" fill="rgb(50, 49, 63)" stroke="none" stroke-width="1px">80</text><text x="168" y="0" dx="0em" dy="0.95em" style="text-anchor: middle; visibility: inherit; font-family: Roboto, sans-serif; font-size: 12px; font-weight: 200;" fill="rgb(50, 49, 63)" stroke="none" stroke-width="1px">100</text><text x="196" y="0" dx="0em" dy="0.95em" style="text-anchor: middle; visibility: inherit; font-family: Roboto, sans-serif; font-size: 12px; font-weight: 200;" fill="rgb(50, 49, 63)" stroke="none" stroke-width="1px">120</text><text x="224" y="0" dx="0em" dy="0.95em" style="text-anchor: middle; visibility: inherit; font-family: Roboto, sans-serif; font-size: 12px; font-weight: 200;" fill="rgb(50, 49, 63)" stroke="none" stroke-width="1px">140</text><text x="252" y="0" dx="0em" dy="0.95em" style="text-anchor: middle; visibility: inherit; font-family: Roboto, sans-serif; font-size: 12px; font-weight: 200;" fill="rgb(50, 49, 63)" stroke="none" stroke-width="1px">160</text><text x="280" y="0" dx="0em" dy="0.95em" style="text-anchor: middle; visibility: hidden; font-family: Roboto, sans-serif; font-size: 12px; font-weight: 200;" fill="rgb(50, 49, 63)" stroke="none" stroke-width="1px">180</text></g><line x1="0" y1="0" x2="280" y2="0" fill="rgb(0, 0, 0)" stroke="rgb(204, 204, 204)" stroke-width="1px"></line></g></g></g></g></svg>