<svg viewBox="0 0 330 200" xmlns="http://www.w3.org/2000/svg"><g><g><g><g><g><line x1="50" y1="177" x2="45" y2="177" style="visibility: inherit;" fill="rgb(0, 0, 0)" stroke="rgb(204, 204, 204)" stroke-width="1px"></line><line x1="50" y1="162.25" x2="45" y2="162.25" style="visibility: inherit;" fill="rgb(0, 0, 0)" stroke="rgb(204, 204, 204)" stroke-width="1px"></line><line x1="50" y1="147.5" x2="45" y2="147.5" style="visibility: inherit;" fill="rgb(0, 0, 0)" stroke="rgb(204, 204, 204)" stroke-width="1px"></line><line x1="50" y1="132.75" x2="45" y2="132.75" style="visibility: inherit;" fill="rgb(0, 0, 0)" stroke="rgb(204, 204, 204)" stroke-width="1px"></line><line x1="50" y1="118.00000000000001" x2="45" y2="118.00000000000001" style="visibility: inherit;" fill="rgb(0, 0, 0)" stroke="rgb(204, 204, 204)" stroke-width="1px"></line><line x1="50" y1="103.25" x2="45" y2="103.25" style="visibility: inherit;" fill="rgb(0, 0, 0)" stroke="rgb(204, 204, 204)" stroke-width="1px"></line><line x1="50" y1="88.5" x2="45" y2="88.5" style="visibility: inherit;" fill="rgb(0, 0, 0)" stroke="rgb(204, 204, 204)" stroke-width="1px"></line><line x1="50" y1="73.75000000000001" x2="45" y2="73.75000000000001" style="visibility: inherit;" fill="rgb(0, 0, 0)" stroke="rgb(204, 204, 204)" stroke-width="1px"></line><line x1="50" y1="59.00000000000001" x2="45" y2="59.00000000000001" style="visibility: inherit;" fill="rgb(0, 0, 0)" stroke="rgb(204, 204, 204)" stroke-width="1px"></line><line x1="50" y1="44.25000000000004" x2="45" y2="44.25000000000004" style="visibility: inherit;" fill="rgb(0, 0, 0)" stroke="rgb(204, 204, 204)" stroke-width="1px"></line><line x1="50" y1="29.500000000000014" x2="45" y2="29.500000000000014" style="visibility: inherit;" fill="rgb(0, 0, 0)" stroke="rgb(204, 204, 204)" stroke-width="1px"></line><line x1="50" y1="14.750000000000007" x2="45" y2="14.750000000000007" style="visibility: inherit;" fill="rgb(0, 0, 0)" stroke="rgb(204, 204, 204)" stroke-width="1px"></line><line x1="50" y1="0" x2="45" y2="0" style="visibility: inherit;" fill="rgb(0, 0, 0)" stroke="rgb(204, 204, 204)" stroke-width="1px"></line></g><g transform="translate(40, 0)"><text x="0" y="177" dx="0em" dy="0.3em" style="text-anchor: end; visibility: hidden; font-family: Roboto, sans-serif; font-size: 12px; font-weight: 200;" fill="rgb(50, 49, 63)" stroke="none" stroke-width="1px">0.5</text><text x="0" y="162.25" dx="0em" dy="0.3em" style="text-anchor: end; visibility: inherit; font-family: Roboto, sans-serif; font-size: 12px; font-weight: 200;" fill="rgb(50, 49, 63)" stroke="none" stroke-width="1px">0.55</text><text x="0" y="147.5" dx="0em" dy="0.3em" style="text-anchor: end; visibility: hidden; font-family: Roboto, sans-serif; font-size: 12px; font-weight: 200;" fill="rgb(50, 49, 63)" stroke="none" stroke-width="1px">0.6</text><text x="0" y="132.75" dx="0em" dy="0.3em" style="text-anchor: end; visibility: inherit; font-family: Roboto, sans-serif; font-size: 12px; font-weight: 200;" fill="rgb(50, 49, 63)" stroke="none" stroke-width="1px">0.65</text><text x="0" y="118.00000000000001" dx="0em" dy="0.3em" style="text-anchor: end; visibility: hidden; font-family: Roboto, sans-serif; font-size: 12px; font-weight: 200;" fill="rgb(50, 49, 63)" stroke="none" stroke-width="1px">0.7</text><text x="0" y="103.25" dx="0em" dy="0.3em" style="text-anchor: end; visibility: inherit; font-family: Roboto, sans-serif; font-size: 12px; font-weight: 200;" fill="rgb(50, 49, 63)" stroke="none" stroke-width="1px">0.75</text><text x="0" y="88.5" dx="0em" dy="0.3em" style="text-anchor: end; visibility: hidden; font-family: Roboto, sans-serif; font-size: 12px; font-weight: 200;" fill="rgb(50, 49, 63)" stroke="none" stroke-width="1px">0.8</text><text x="0" y="73.75000000000001" dx="0em" dy="0.3em" style="text-anchor: end; visibility: inherit; font-family: Roboto, sans-serif; font-size: 12px; font-weight: 200;" fill="rgb(50, 49, 63)" stroke="none" stroke-width="1px">0.85</text><text x="0" y="59.00000000000001" dx="0em" dy="0.3em" style="text-anchor: end; visibility: hidden; font-family: Roboto, sans-serif; font-size: 12px; font-weight: 200;" fill="rgb(50, 49, 63)" stroke="none" stroke-width="1px">0.9</text><text x="0" y="44.25000000000004" dx="0em" dy="0.3em" style="text-anchor: end; visibility: inherit; font-family: Roboto, sans-serif; font-size: 12px; font-weight: 200;" fill="rgb(50, 49, 63)" stroke="none" stroke-width="1px">0.95</text><text x="0" y="29.500000000000014" dx="0em" dy="0.3em" style="text-anchor: end; visibility: hidden; font-family: Roboto, sans-serif; font-size: 12px; font-weight: 200;" fill="rgb(50, 49, 63)" stroke="none" stroke-width="1px">1</text><text x="0" y="14.750000000000007" dx="0em" dy="0.3em" style="text-anchor: end; visibility: inherit; font-family: Roboto, sans-serif; font-size: 12px; font-weight: 200;" fill="rgb(50, 49, 63)" stroke="none" stroke-width="1px">1.05</text><text x="0" y="0" dx="0em" dy="0.3em" style="text-anchor: end; visibility: hidden; font-family: Roboto, sans-serif; font-size: 12px; font-weight: 200;" fill="rgb(50, 49, 63)" stroke="none" stroke-width="1px">1.1</text></g><line x1="50" y1="0" x2="50" y2="177" fill="rgb(0, 0, 0)" stroke="rgb(204, 204, 204)" stroke-width="1px"></line></g></g><g transform="translate(50, 0)" clip-path="url(#clip_0)"><clipPath id="clip_0"><rect width="280" height="177"></rect></clipPath><g><g><g><line x1="0" y1="0" x2="0" y2="177" fill="rgb(0, 0, 0)" stroke="rgb(60, 60, 60)" stroke-width="1px" opacity="0.25"></line><line x1="28" y1="0" x2="28" y2="177" fill="rgb(0, 0, 0)" stroke="rgb(60, 60, 60)" stroke-width="1px" opacity="0.25"></line><line x1="56" y1="0" x2="56" y2="177" fill="rgb(0, 0, 0)" stroke="rgb(60, 60, 60)" stroke-width="1px" opacity="0.25"></line><line x1="84" y1="0" x2="84" y2="177" fill="rgb(0, 0, 0)" stroke="rgb(60, 60, 60)" stroke-width="1px" opacity="0.25"></line><line x1="112" y1="0" x2="112" y2="177" fill="rgb(0, 0, 0)" stroke="rgb(60, 60, 60)" stroke-width="1px" opacity="0.25"></line><line x1="140" y1="0" x2="140" y2="177" fill="rgb(0, 0, 0)" stroke="rgb(60, 60, 60)" stroke-width="1px" opacity="0.25"></line><line x1="168" y1="0" x2="168" y2="177" fill="rgb(0, 0, 0)" stroke="rgb(60, 60, 60)" stroke-width="1px" opacity="0.25"></line><line x1="196" y1="0" x2="196" y2="177" fill="rgb(0, 0, 0)" stroke="rgb(60, 60, 60)" stroke-width="1px" opacity="0.25"></line><line x1="224" y1="0" x2="224" y2="177" fill="rgb(0, 0, 0)" stroke="rgb(60, 60, 60)" stroke-width="1px" opacity="0.25"></line><line x1="252" y1="0" x2="252" y2="177" fill="rgb(0, 0, 0)" stroke="rgb(60, 60, 60)" stroke-width="1px" opacity="0.25"></line><line x1="280" y1="0" x2="280" y2="177" fill="rgb(0, 0, 0)" stroke="rgb(60, 60, 60)" stroke-width="1px" opacity="0.25"></line></g><g><line x1="0" y1="177" x2="280" y2="177" fill="rgb(0, 0, 0)" stroke="rgb(60, 60, 60)" stroke-width="1px" opacity="0.25"></line><line x1="0" y1="162.25" x2="280" y2="162.25" fill="rgb(0, 0, 0)" stroke="rgb(60, 60, 60)" stroke-width="1px" opacity="0.25"></line><line x1="0" y1="147.5" x2="280" y2="147.5" fill="rgb(0, 0, 0)" stroke="rgb(60, 60, 60)" stroke-width="1px" opacity="0.25"></line><line x1="0" y1="132.75" x2="280" y2="132.75" fill="rgb(0, 0, 0)" stroke="rgb(60, 60, 60)" stroke-width="1px" opacity="0.25"></line><line x1="0" y1="118.00000000000001" x2="280" y2="118.00000000000001" fill="rgb(0, 0, 0)" stroke="rgb(60, 60, 60)" stroke-width="1px" opacity="0.25"></line><line x1="0" y1="103.25" x2="280" y2="103.25" fill="rgb(0, 0, 0)" stroke="rgb(60, 60, 60)" stroke-width="1px" opacity="0.25"></line><line x1="0" y1="88.5" x2="280" y2="88.5" fill="rgb(0, 0, 0)" stroke="rgb(60, 60, 60)" stroke-width="1px" opacity="0.25"></line><line x1="0" y1="73.75000000000001" x2="280" y2="73.75000000000001" fill="rgb(0, 0, 0)" stroke="rgb(60, 60, 60)" stroke-width="1px" opacity="0.25"></line><line x1="0" y1="59.00000000000001" x2="280" y2="59.00000000000001" fill="rgb(0, 0, 0)" stroke="rgb(60, 60, 60)" stroke-width="1px" opacity="0.25"></line><line x1="0" y1="44.25000000000004" x2="280" y2="44.25000000000004" fill="rgb(0, 0, 0)" stroke="rgb(60, 60, 60)" stroke-width="1px" opacity="0.25"></line><line x1="0" y1="29.500000000000014" x2="280" y2="29.500000000000014" fill="rgb(0, 0, 0)" stroke="rgb(60, 60, 60)" stroke-width="1px" opacity="0.25"></line><line x1="0" y1="14.750000000000007" x2="280" y2="14.750000000000007" fill="rgb(0, 0, 0)" stroke="rgb(60, 60, 60)" stroke-width="1px" opacity="0.25"></line><line x1="0" y1="0" x2="280" y2="0" fill="rgb(0, 0, 0)" stroke="rgb(60, 60, 60)" stroke-width="1px" opacity="0.25"></line></g></g></g><g><g><line x1="0" y1="324.5" x2="280" y2="324.5" fill="rgb(0, 0, 0)" stroke="rgb(153, 153, 153)" stroke-width="1.5px"></line></g></g><g><g><line x1="28" y1="0" x2="28" y2="177" fill="rgb(0, 0, 0)" stroke="rgb(153, 153, 153)" stroke-width="1.5px"></line></g></g><g><g><g><g><g><path stroke="rgb(204, 51, 17)" stroke-width="2px" d="M30.8,190.39835405957942L32.2,145.69665053399171L33.6,122.89598981830332L35,112.83278944165667L36.4,99.9629280846975L37.800000000000004,83.06252168225451L39.2,75.44307869294083L40.599999999999994,73.24865584596716L42,67.29622502523874L43.4,75.33248171963608L44.800000000000004,82.459776648765L46.2,84.41465143341605L47.6,76.32734044157944L49,76.10614468149099L50.4,66.71699894932091L51.8,61.084528745311886L53.2,55.3915463966246L54.6,65.85883870935173L56,67.51141694414926L57.4,61.56167326409866L58.8,57.99187717584978L60.199999999999996,55.850017565711454L61.6,59.19237215556099L63,68.13896672517784L64.4,66.56573053863838L65.8,60.994336310971214L67.2,59.9652281688376L68.6,59.34776352623369L70,58.97728482803481L71.4,56.44127210413739L72.8,66.48829191283302L74.2,58.6341509795313L75.60000000000001,60.86284273975532L77,57.57260701906548L78.4,55.59846560837117L79.8,54.413980769773644L81.19999999999999,56.01701522687211L82.6,54.665110543465275L84,53.85396773457781L85.39999999999999,51.05355669626092L86.8,44.74585936822254L88.2,40.961240972565164L89.60000000000001,36.37674458306259L91,35.93977210209763L92.4,33.36386326116221L93.80000000000001,31.818317956662604L95.2,35.518441478622L96.6,42.36596629637773L98,37.21957977780168L99.39999999999999,43.386649275848164L100.8,44.77316562237317L102.2,40.97762472570722L103.6,38.70030018771022L105,41.96135616948923L106.4,55.486616519994975L107.8,56.66059667343363L109.2,55.05125941320923L110.60000000000001,44.830755647925045L112,43.325904093329555L113.4,42.42299316057235L114.8,41.88124660091797L116.19999999999999,43.8699240174127L117.6,38.1219544104476L119,39.300623350843146L120.39999999999999,40.00782471508047L121.8,35.80469482904831L123.2,44.85144365886546L124.60000000000001,45.65204225218114L126,41.504950703595995L127.4,36.70297042215761L128.8,33.821782253294565L130.20000000000002,41.34797076112596L131.6,38.922507808962884L133,44.408406094526896L134.4,45.38621971357802L135.79999999999998,50.60035858958327L137.2,44.47394050603727L138.6,43.11181500819696L140,39.980814357205496L141.4,42.72966467118519L142.8,42.0652495072857L144.20000000000002,46.29405111352062L145.6,53.45878278183612L147,43.87526966910168L148.4,38.125161801461026L149.8,43.9299984900258L151.20000000000002,40.471724446302794L152.60000000000002,38.39676002006897L154,39.465506716615984L155.4,44.73420543911876L156.8,45.58169932033313L158.2,57.658822410498225L159.6,62.59137091230998L161,72.4920760702589L162.39999999999998,66.86387240359183L163.79999999999998,81.9967530218899L165.2,74.88040392685771L166.6,61.35569306068923L168,50.92714118870083L169.4,46.983735417795096L170.79999999999998,44.617691955251665L172.2,43.198065877725604L173.6,46.97374093578455L175,51.552871322907215L176.4,47.35917349831893L177.8,51.784130860427815L179.20000000000002,47.497929220831296L180.6,42.61248288478607L182,39.68121508315895L183.4,37.92245440218269L184.8,39.18092334588422L186.20000000000002,37.62227935981784L187.60000000000002,43.62826902503989L189,42.60441211959852L190.4,41.99009797633369L191.8,41.621509490374805L193.2,36.77290569422488L194.6,33.86374341653492L196,48.314323515932024L197.39999999999998,45.4160448141338L198.79999999999998,52.93197900220403L200.2,45.87291275360973L201.6,48.57864906131501L203,47.88836549365089L204.4,40.53301929619053L205.79999999999998,36.11981157771432L207.2,40.41306300349049L208.6,36.04783780209432L210,40.369878738118466L211.4,36.02192724287108L212.8,35.72688169800996L214.20000000000002,40.17730507566787L215.6,42.8475591022626L217,42.13598616593215L218.4,44.022767756421196L219.8,45.15483671071459L221.20000000000002,43.52035273100334L222.60000000000002,44.8533876954639L224,43.33948332185294L225.4,47.05859140226093L226.8,44.66260554593114L228.2,50.166190088995165L229.6,48.840890110258975L231,52.67316082759184L232.39999999999998,57.28624861027889L233.79999999999998,57.740375927603814L235.2,46.44422555656229L236.6,48.921436743086545L238,50.407763455001096L239.4,46.67210877757524L240.79999999999998,39.80326526654516L242.2,37.9956845122144L243.6,36.911136059615934L245,33.946681635769586L246.4,32.168008981461746L247.8,31.100805388877053L249.20000000000002,30.460483233326233L250.6,30.07628993999576" style="fill: none;" fill="none"></path></g><g><path stroke="rgb(0, 119, 187)" stroke-width="2px" d="M30.8,218.72708184743414L32.2,168.4673355868196L33.6,140.00411775863313L35,116.20595254380935L36.4,99.97529264125617L37.800000000000004,89.86957901727439L39.2,81.2816076926884L40.599999999999994,72.90505357320748L42,71.18319252933856L43.4,70.80743993313409L44.800000000000004,71.88808790939206L46.2,69.27334780523627L47.6,65.74909040739216L49,63.6355967818153L50.4,59.75970741878329L51.8,59.39059064039117L53.2,52.64941034159447L54.6,48.60496507137674L56,50.74203133183019L57.4,47.46064234664437L58.8,44.18796313263422L60.199999999999996,42.224372145322086L61.6,43.65396429042291L63,49.07526343139744L64.4,54.28383726747968L65.8,52.19350821679772L67.2,51.591239915345135L68.6,54.489548266552724L70,51.01306543765386L71.4,49.57911118788222L72.8,50.67453707276969L74.2,50.679857450990475L75.60000000000001,50.683049677825394L77,50.03303693995961L78.4,45.731425707339014L79.8,43.150458984804246L81.19999999999999,40.94994385540902L82.6,40.281569882336406L84,37.92474019582974L85.39999999999999,36.51064238513553L86.8,36.31411879989816L88.2,35.54426954812371L89.60000000000001,35.734295097767614L91,39.10797889717361L92.4,41.78412427726233L93.80000000000001,40.13014303574926L95.2,38.48581919030103L96.6,41.410828453062315L98,39.90616554125911L99.39999999999999,37.69949759306723L100.8,37.67936702526929L102.2,38.971158885702835L103.6,36.48656553253095L105,36.29967268839209L106.4,38.143342283575564L107.8,37.293738739018785L109.2,37.43591171284032L110.60000000000001,34.26154702770403L112,33.660798417733254L113.4,31.996479050639913L114.8,30.997887430383955L116.19999999999999,30.39873245823037L117.6,31.9950377432564L119,31.64895774650928L120.39999999999999,31.441309748461023L121.8,32.62058411739479L123.2,32.676220671547746L124.60000000000001,33.361530671246804L126,37.03238514049528L127.4,37.2790995537262L128.8,35.471329933346546L130.20000000000002,35.03859622832615L131.6,39.34249467585371L133,40.6209635432594L134.4,40.08418169594009L135.79999999999998,37.154379218674904L137.2,35.39649773231577L138.6,34.341768840500315L140,33.056996404855646L141.4,32.2861329434688L142.8,37.03908160438389L144.20000000000002,37.28311743205935L145.6,36.12566872755379L147,36.7350697059613L148.4,37.10071029300581L149.8,35.36429637691433L151.20000000000002,33.670512926704056L152.60000000000002,32.65424285657783L154,32.69641591505755L155.4,33.3736478173527L156.8,34.4319220592852L158.2,37.67461997331833L159.6,39.62023872173819L161,41.43954507134556L162.39999999999998,40.575330612791774L163.79999999999998,42.0126002059777L165.2,44.178832163000095L166.6,41.566967767229066L168,40.6517842303219L169.4,39.450739007622154L170.79999999999998,35.470443404573295L172.2,34.3861362438548L173.6,34.387480014631045L175,33.73635820988948L176.4,36.60535359647356L177.8,36.37094552675778L179.20000000000002,34.27450241661012L180.6,32.36470144996607L182,31.21882086997964L183.4,31.183227622543203L184.8,30.50993657352594L186.20000000000002,30.75789704467096L187.60000000000002,32.86247159567617L189,32.16941805796113L190.4,32.4055210358875L191.8,32.54718282264335L193.2,31.328309693586007L194.6,31.900856017262456L196,32.24438381146832L197.39999999999998,32.45050048799184L198.79999999999998,35.18190386277955L200.2,34.86494058598592L201.6,33.37089945214698L203,32.47447477184364L204.4,31.936619963661617L205.79999999999998,31.61390707875238L207.2,31.42027934780686L208.6,31.95603780979496L210,30.97362268587698L211.4,31.036108712081646L212.8,30.421665227249008L214.20000000000002,30.052999136349403L215.6,29.83179948180966L217,29.699079689085817L218.4,30.27138291400692L219.8,30.614764848959588L221.20000000000002,30.82079400993119L222.60000000000002,31.59634660706956L224,32.06167816535258L225.4,33.644740268085165L226.8,34.594577529724695L228.2,35.1644798867084L229.6,36.15835640145407L231,38.05855251141234L232.39999999999998,41.15446844570546L233.79999999999998,42.36008290572592L235.2,41.12765331342001L236.6,41.04013065859184L238,39.68374686458414L239.4,41.477649957053124L240.79999999999998,36.68658997423189L242.2,34.46388908509453L243.6,33.130268551612176L245,31.678161130967304L246.4,30.806896678580383L247.8,30.284138007148254L249.20000000000002,29.970482804288956L250.6,29.782289682573378" style="fill: none;" fill="none"></path></g></g></g></g><g opacity="0.2"><g><g><g><path stroke="rgb(204, 51, 17)" stroke-width="2px" d="M29.4,220.38235035538673L30.8,174.10783451795578L32.2,93.12744718790056L33.6,93.12744718790056L35,98.91176056861879L36.4,81.5588204264641L37.800000000000004,58.42156690359117L39.2,64.2058802843094L40.599999999999994,69.99019366502763L42,58.42156690359117L43.4,87.34313380718233L44.800000000000004,93.12744718790056L46.2,87.34313380718233L47.6,64.2058802843094L49,75.77450704574586L50.4,52.63725352287294L51.8,52.63725352287294L53.2,46.85294014215471L54.6,81.5588204264641L56,69.99019366502763L57.4,52.63725352287294L58.8,52.63725352287294L60.199999999999996,52.63725352287294L61.6,64.2058802843094L63,81.5588204264641L64.4,64.2058802843094L65.8,52.63725352287294L67.2,58.42156690359117L68.6,58.42156690359117L70,58.42156690359117L71.4,52.63725352287294L72.8,81.5588204264641L74.2,46.85294014215471L75.60000000000001,64.2058802843094L77,52.63725352287294L78.4,52.63725352287294L79.8,52.63725352287294L81.19999999999999,58.42156690359117L82.6,52.63725352287294L84,52.63725352287294L85.39999999999999,46.85294014215471L86.8,35.284313380718245L88.2,35.284313380718245L89.60000000000001,29.500000000000014L91,35.284313380718245L92.4,29.500000000000014L93.80000000000001,29.500000000000014L95.2,41.06862676143648L96.6,52.63725352287294L98,29.500000000000014L99.39999999999999,52.63725352287294L100.8,46.85294014215471L102.2,35.284313380718245L103.6,35.284313380718245L105,46.85294014215471L106.4,75.77450704574586L107.8,58.42156690359117L109.2,52.63725352287294L110.60000000000001,29.500000000000014L112,41.06862676143648L113.4,41.06862676143648L114.8,41.06862676143648L116.19999999999999,46.85294014215471L117.6,29.500000000000014L119,41.06862676143648L120.39999999999999,41.06862676143648L121.8,29.500000000000014L123.2,58.42156690359117L124.60000000000001,46.85294014215471L126,35.284313380718245L127.4,29.500000000000014L128.8,29.500000000000014L130.20000000000002,52.63725352287294L131.6,35.284313380718245L133,52.63725352287294L134.4,46.85294014215471L135.79999999999998,58.42156690359117L137.2,35.284313380718245L138.6,41.06862676143648L140,35.284313380718245L141.4,46.85294014215471L142.8,41.06862676143648L144.20000000000002,52.63725352287294L145.6,64.2058802843094L147,29.500000000000014L148.4,29.500000000000014L149.8,52.63725352287294L151.20000000000002,35.284313380718245L152.60000000000002,35.284313380718245L154,41.06862676143648L155.4,52.63725352287294L156.8,46.85294014215471L158.2,75.77450704574586L159.6,69.99019366502763L161,87.34313380718233L162.39999999999998,58.42156690359117L163.79999999999998,104.69607394933702L165.2,64.2058802843094L166.6,41.06862676143648L168,35.284313380718245L169.4,41.06862676143648L170.79999999999998,41.06862676143648L172.2,41.06862676143648L173.6,52.63725352287294L175,58.42156690359117L176.4,41.06862676143648L177.8,58.42156690359117L179.20000000000002,41.06862676143648L180.6,35.284313380718245L182,35.284313380718245L183.4,35.284313380718245L184.8,41.06862676143648L186.20000000000002,35.284313380718245L187.60000000000002,52.63725352287294L189,41.06862676143648L190.4,41.06862676143648L191.8,41.06862676143648L193.2,29.500000000000014L194.6,29.500000000000014L196,69.99019366502763L197.39999999999998,41.06862676143648L198.79999999999998,64.2058802843094L200.2,35.284313380718245L201.6,52.63725352287294L203,46.85294014215471L204.4,29.500000000000014L205.79999999999998,29.500000000000014L207.2,46.85294014215471L208.6,29.500000000000014L210,46.85294014215471L211.4,29.500000000000014L212.8,35.284313380718245L214.20000000000002,46.85294014215471L215.6,46.85294014215471L217,41.06862676143648L218.4,46.85294014215471L219.8,46.85294014215471L221.20000000000002,41.06862676143648L222.60000000000002,46.85294014215471L224,41.06862676143648L225.4,52.63725352287294L226.8,41.06862676143648L228.2,58.42156690359117L229.6,46.85294014215471L231,58.42156690359117L232.39999999999998,64.2058802843094L233.79999999999998,58.42156690359117L235.2,29.500000000000014L236.6,52.63725352287294L238,52.63725352287294L239.4,41.06862676143648L240.79999999999998,29.500000000000014L242.2,35.284313380718245L243.6,35.284313380718245L245,29.500000000000014L246.4,29.500000000000014L247.8,29.500000000000014L249.20000000000002,29.500000000000014L250.6,29.500000000000014" style="fill: none;" fill="none"></path></g><g><path stroke="rgb(0, 119, 187)" stroke-width="2px" d="M30.8,197.37292793393135L32.2,109.36187398433687L33.6,102.84254056215288L35,83.2845227122307L36.4,76.7651892900467L37.800000000000004,75.13535153865814L39.2,68.61601811647415L40.599999999999994,60.466846942901626L42,68.61601811647415L43.4,70.24585586786272L44.800000000000004,73.5055313706398L46.2,65.35636019706727L47.6,60.466846942901626L49,60.466846942901626L50.4,53.947513520717635L51.8,58.83700919151308L53.2,42.538666844367995L54.6,42.538666844367995L56,53.947513520717635L57.4,42.538666844367995L58.8,39.27900892496111L60.199999999999996,39.27900892496111L61.6,45.7983423471451L63,57.20718902349474L64.4,62.09668469429019L65.8,49.05801784992221L67.2,50.68783801794055L68.6,58.83700919151308L70,45.7983423471451L71.4,47.428180098533645L72.8,52.31767576932909L74.2,50.68783801794055L75.60000000000001,50.68783801794055L77,49.05801784992221L78.4,39.27900892496111L79.8,39.27900892496111L81.19999999999999,37.64917117357257L82.6,39.27900892496111L84,34.38949567079546L85.39999999999999,34.38949567079546L86.8,36.019333422184005L88.2,34.38949567079546L89.60000000000001,36.019333422184005L91,44.16850459575656L92.4,45.7983423471451L93.80000000000001,37.64917117357257L95.2,36.019333422184005L96.6,45.7983423471451L98,37.64917117357257L99.39999999999999,34.38949567079546L100.8,37.64917117357257L102.2,40.908846676349654L103.6,32.75967550277712L105,36.019333422184005L106.4,40.908846676349654L107.8,36.019333422184005L109.2,37.64917117357257L110.60000000000001,29.500000000000014L112,32.75967550277712L113.4,29.500000000000014L114.8,29.500000000000014L116.19999999999999,29.500000000000014L117.6,34.38949567079546L119,31.129837751388575L120.39999999999999,31.129837751388575L121.8,34.38949567079546L123.2,32.75967550277712L124.60000000000001,34.38949567079546L126,42.538666844367995L127.4,37.64917117357257L128.8,32.75967550277712L130.20000000000002,34.38949567079546L131.6,45.7983423471451L133,42.538666844367995L134.4,39.27900892496111L135.79999999999998,32.75967550277712L137.2,32.75967550277712L138.6,32.75967550277712L140,31.129837751388575L141.4,31.129837751388575L142.8,44.16850459575656L144.20000000000002,37.64917117357257L145.6,34.38949567079546L147,37.64917117357257L148.4,37.64917117357257L149.8,32.75967550277712L151.20000000000002,31.129837751388575L152.60000000000002,31.129837751388575L154,32.75967550277712L155.4,34.38949567079546L156.8,36.019333422184005L158.2,42.538666844367995L159.6,42.538666844367995L161,44.16850459575656L162.39999999999998,39.27900892496111L163.79999999999998,44.16850459575656L165.2,47.428180098533645L166.6,37.64917117357257L168,39.27900892496111L169.4,37.64917117357257L170.79999999999998,29.500000000000014L172.2,32.75967550277712L173.6,34.38949567079546L175,32.75967550277712L176.4,40.908846676349654L177.8,36.019333422184005L179.20000000000002,31.129837751388575L180.6,29.500000000000014L182,29.500000000000014L183.4,31.129837751388575L184.8,29.500000000000014L186.20000000000002,31.129837751388575L187.60000000000002,36.019333422184005L189,31.129837751388575L190.4,32.75967550277712L191.8,32.75967550277712L193.2,29.500000000000014L194.6,32.75967550277712L196,32.75967550277712L197.39999999999998,32.75967550277712L198.79999999999998,39.27900892496111L200.2,34.38949567079546L201.6,31.129837751388575L203,31.129837751388575L204.4,31.129837751388575L205.79999999999998,31.129837751388575L207.2,31.129837751388575L208.6,32.75967550277712L210,29.500000000000014L211.4,31.129837751388575L212.8,29.500000000000014L214.20000000000002,29.500000000000014L215.6,29.500000000000014L217,29.500000000000014L218.4,31.129837751388575L219.8,31.129837751388575L221.20000000000002,31.129837751388575L222.60000000000002,32.75967550277712L224,32.75967550277712L225.4,36.019333422184005L226.8,36.019333422184005L228.2,36.019333422184005L229.6,37.64917117357257L231,40.908846676349654L232.39999999999998,45.7983423471451L233.79999999999998,44.16850459575656L235.2,39.27900892496111L236.6,40.908846676349654L238,37.64917117357257L239.4,44.16850459575656L240.79999999999998,29.500000000000014L242.2,31.129837751388575L243.6,31.129837751388575L245,29.500000000000014L246.4,29.500000000000014L247.8,29.500000000000014L249.20000000000002,29.500000000000014L250.6,29.500000000000014" style="fill: none;" fill="none"></path></g></g></g></g></g></g><g transform="translate(50, 177)" clip-path="url(#clip_1)"><clipPath id="clip_1"><rect width="280" height="23"></rect></clipPath><g><g><line x1="0" y1="0" x2="0" y2="5" style="visibility: inherit;" fill="rgb(0, 0, 0)" stroke="rgb(204, 204, 204)" stroke-width="1px"></line><line x1="28" y1="0" x2="28" y2="5" style="visibility: inherit;" fill="rgb(0, 0, 0)" stroke="rgb(204, 204, 204)" stroke-width="1px"></line><line x1="56" y1="0" x2="56" y2="5" style="visibility: inherit;" fill="rgb(0, 0, 0)" stroke="rgb(204, 204, 204)" stroke-width="1px"></line><line x1="84" y1="0" x2="84" y2="5" style="visibility: inherit;" fill="rgb(0, 0, 0)" stroke="rgb(204, 204, 204)" stroke-width="1px"></line><line x1="112" y1="0" x2="112" y2="5" style="visibility: inherit;" fill="rgb(0, 0, 0)" stroke="rgb(204, 204, 204)" stroke-width="1px"></line><line x1="140" y1="0" x2="140" y2="5" style="visibility: inherit;" fill="rgb(0, 0, 0)" stroke="rgb(204, 204, 204)" stroke-width="1px"></line><line x1="168" y1="0" x2="168" y2="5" style="visibility: inherit;" fill="rgb(0, 0, 0)" stroke="rgb(204, 204, 204)" stroke-width="1px"></line><line x1="196" y1="0" x2="196" y2="5" style="visibility: inherit;" fill="rgb(0, 0, 0)" stroke="rgb(204, 204, 204)" stroke-width="1px"></line><line x1="224" y1="0" x2="224" y2="5" style="visibility: inherit;" fill="rgb(0, 0, 0)" stroke="rgb(204, 204, 204)" stroke-width="1px"></line><line x1="252" y1="0" x2="252" y2="5" style="visibility: inherit;" fill="rgb(0, 0, 0)" stroke="rgb(204, 204, 204)" stroke-width="1px"></line><line x1="280" y1="0" x2="280" y2="5" style="visibility: inherit;" fill="rgb(0, 0, 0)" stroke="rgb(204, 204, 204)" stroke-width="1px"></line></g><g transform="translate(0, 8)"><text x="0" y="0" dx="0em" dy="0.95em" style="text-anchor: middle; visibility: hidden; font-family: Roboto, sans-serif; font-size: 12px; font-weight: 200;" fill="rgb(50, 49, 63)" stroke="none" stroke-width="1px">-20</text><text x="28" y="0" dx="0em" dy="0.95em" style="text-anchor: middle; visibility: inherit; font-family: Roboto, sans-serif; font-size: 12px; font-weight: 200;" fill="rgb(50, 49, 63)" stroke="none" stroke-width="1px">0</text><text x="56" y="0" dx="0em" dy="0.95em" style="text-anchor: middle; visibility: inherit; font-family: Roboto, sans-serif; font-size: 12px; font-weight: 200;" fill="rgb(50, 49, 63)" stroke="none" stroke-width="1px">20</text><text x="84" y="0" dx="0em" dy="0.95em" style="text-anchor: middle; visibility: inherit; font-family: Roboto, sans-serif; font-size: 12px; font-weight: 200;" fill="rgb(50, 49, 63)" stroke="none" stroke-width="1px">40</text><text x="112" y="0" dx="0em" dy="0.95em" style="text-anchor: middle; visibility: inherit; font-family: Roboto, sans-serif; font-size: 12px; font-weight: 200;" fill="rgb(50, 49, 63)" stroke="none" stroke-width="1px">60</text><text x="140" y="0" dx="0em" dy="0.95em" style="text-anchor: middle; visibility: inherit; font-family: Roboto, sans-serif; font-size: 12px; font-weight: 200;" fill="rgb(50, 49, 63)" stroke="none" stroke-width="1px">80</text><text x="168" y="0" dx="0em" dy="0.95em" style="text-anchor: middle; visibility: inherit; font-family: Roboto, sans-serif; font-size: 12px; font-weight: 200;" fill="rgb(50, 49, 63)" stroke="none" stroke-width="1px">100</text><text x="196" y="0" dx="0em" dy="0.95em" style="text-anchor: middle; visibility: inherit; font-family: Roboto, sans-serif; font-size: 12px; font-weight: 200;" fill="rgb(50, 49, 63)" stroke="none" stroke-width="1px">120</text><text x="224" y="0" dx="0em" dy="0.95em" style="text-anchor: middle; visibility: inherit; font-family: Roboto, sans-serif; font-size: 12px; font-weight: 200;" fill="rgb(50, 49, 63)" stroke="none" stroke-width="1px">140</text><text x="252" y="0" dx="0em" dy="0.95em" style="text-anchor: middle; visibility: inherit; font-family: Roboto, sans-serif; font-size: 12px; font-weight: 200;" fill="rgb(50, 49, 63)" stroke="none" stroke-width="1px">160</text><text x="280" y="0" dx="0em" dy="0.95em" style="text-anchor: middle; visibility: hidden; font-family: Roboto, sans-serif; font-size: 12px; font-weight: 200;" fill="rgb(50, 49, 63)" stroke="none" stroke-width="1px">180</text></g><line x1="0" y1="0" x2="280" y2="0" fill="rgb(0, 0, 0)" stroke="rgb(204, 204, 204)" stroke-width="1px"></line></g></g></g></g></svg>